<svg xmlns="http://www.w3.org/2000/svg" class="graphdiagram" viewBox="-409.55903334205885 -250.55279710045144 1226 573"><g class="layer relationships"><g class="related-pair"><g class="relationship" transform="translate(38.000000000000014,-142.86852249145514) rotate(90)"><path class="relationship" d="M 31.174322412115654 1 L 302.12997516948275 1 L 302.12997516948275 4 L 310.12997516948275 0 L 302.12997516948275 -4 L 302.12997516948275 -1 L 31.174322412115654 -1 Z" fill="rgba(0, 0, 0, 0.3)" stroke="rgb(51, 51, 51)" stroke-width="0px"/><text class="type" text-anchor="middle" baseline-shift="30%" alignment-baseline="alphabetic" x="166.6521487907992" y="0" font-size="14px" font-family="&quot;Helvetica Neue&quot;, Helvetica, Arial, sans-serif">STATEMENT</text></g></g><g class="related-pair"><g class="relationship" transform="translate(38.000000000000014,207.99999999999955) rotate(-43.734000999605236)"><path class="relationship" d="M 40.73854732197198 1 L 200.579832083668 1 L 200.579832083668 4 L 208.579832083668 0 L 200.579832083668 -4 L 200.579832083668 -1 L 40.73854732197198 -1 Z" fill="rgba(0, 0, 0, 0.3)" stroke="rgb(51, 51, 51)" stroke-width="0px"/><text class="type" text-anchor="middle" baseline-shift="30%" alignment-baseline="alphabetic" x="120.65918970282" y="0" font-size="14px" font-family="&quot;Helvetica Neue&quot;, Helvetica, Arial, sans-serif">STATEMENT</text></g></g><g class="related-pair"><g class="relationship" transform="translate(222.99999999999974,31.000000000000004) rotate(-136.77664580179635)"><path class="relationship" d="M 47.45532175267482 1 L 214.70608863482107 1 L 214.70608863482107 4 L 222.70608863482107 0 L 214.70608863482107 -4 L 214.70608863482107 -1 L 47.45532175267482 -1 Z" fill="rgba(0, 0, 0, 0.3)" stroke="rgb(51, 51, 51)" stroke-width="0px"/><text class="type" text-anchor="middle" baseline-shift="30%" alignment-baseline="alphabetic" transform="rotate(180)" x="-131.08070519374795" y="0" font-size="14px" font-family="&quot;Helvetica Neue&quot;, Helvetica, Arial, sans-serif">STATEMENT</text></g></g></g><g class="layer nodes"><circle class="node node-id-0" r="25.674322412115654" fill="rgb(247, 247, 249)" stroke="rgba(0, 0, 0, 0.3)" stroke-width="1px" cx="38.000000000000014" cy="-142.86852249145514"/><g class="caption"><text class="caption node" text-anchor="middle" alignment-baseline="central" x="38.000000000000014" y="-142.86852249145514" fill="rgb(51, 51, 51)" font-size="14px" font-family="&quot;Helvetica Neue&quot;, Helvetica, Arial, sans-serif">GENE</text></g><circle class="node node-id-1" r="35.23854732197198" fill="rgb(247, 247, 249)" stroke="rgba(0, 0, 0, 0.3)" stroke-width="1px" cx="38.000000000000014" cy="207.99999999999955"/><g class="caption"><text class="caption node" text-anchor="middle" alignment-baseline="central" x="38.000000000000014" y="207.99999999999955" fill="rgb(51, 51, 51)" font-size="14px" font-family="&quot;Helvetica Neue&quot;, Helvetica, Arial, sans-serif">DISEASE</text></g><circle class="node node-id-2" r="41.95532175267482" fill="rgb(247, 247, 249)" stroke="rgba(0, 0, 0, 0.3)" stroke-width="1px" cx="222.99999999999974" cy="31.000000000000004"/><g class="caption"><text class="caption node" text-anchor="middle" alignment-baseline="central" x="222.99999999999974" y="31.000000000000004" fill="rgb(51, 51, 51)" font-size="14px" font-family="&quot;Helvetica Neue&quot;, Helvetica, Arial, sans-serif">CHEMICAL</text></g></g><g class="layer properties"><g class="speech-bubble node-speech-bubble" transform="translate(19.845512520023277,-161.02300997143186) "><path class="speech-bubble-outline" transform="scale(-1,-1) " d="M 0 0 L 16 12 L 97.14389038085938 12 A 4 4 0 0 1 101.14389038085938 16 L 101.14389038085938 44 A 4 4 0 0 1 97.14389038085938 48 L 16 48 A 4 4 0 0 1 12 44 L 12 16 Z" fill="rgb(255, 255, 255)" stroke="rgba(0, 0, 0, 0.5)" stroke-width="1px"/><text class="speech-bubble-content property-key" x="-54.10795593261719" y="-37" alignment-baseline="central" text-anchor="end" font-size="14px" font-family="&quot;Helvetica Neue&quot;, Helvetica, Arial, sans-serif" xml:space="preserve">{curie: </text><text class="speech-bubble-content property-key" x="-54.10795593261719" y="-23" alignment-baseline="central" text-anchor="end" font-size="14px" font-family="&quot;Helvetica Neue&quot;, Helvetica, Arial, sans-serif" xml:space="preserve">{type: </text><text class="speech-bubble-content property-value" x="-54.10795593261719" y="-37" alignment-baseline="central" font-size="14px" font-family="&quot;Helvetica Neue&quot;, Helvetica, Arial, sans-serif">xxxx}</text><text class="speech-bubble-content property-value" x="-54.10795593261719" y="-23" alignment-baseline="central" font-size="14px" font-family="&quot;Helvetica Neue&quot;, Helvetica, Arial, sans-serif">Gene}</text></g><g class="speech-bubble node-speech-bubble" transform="translate(13.082584229470573,232.91741577052898) "><path class="speech-bubble-outline" transform="scale(-1,1) " d="M 0 0 L 16 12 L 113.21585083007812 12 A 4 4 0 0 1 117.21585083007812 16 L 117.21585083007812 44 A 4 4 0 0 1 113.21585083007812 48 L 16 48 A 4 4 0 0 1 12 44 L 12 16 Z" fill="rgb(255, 255, 255)" stroke="rgba(0, 0, 0, 0.5)" stroke-width="1px"/><text class="speech-bubble-content property-key" x="-70.17991638183594" y="23" alignment-baseline="central" text-anchor="end" font-size="14px" font-family="&quot;Helvetica Neue&quot;, Helvetica, Arial, sans-serif" xml:space="preserve">{curie: </text><text class="speech-bubble-content property-key" x="-70.17991638183594" y="37" alignment-baseline="central" text-anchor="end" font-size="14px" font-family="&quot;Helvetica Neue&quot;, Helvetica, Arial, sans-serif" xml:space="preserve">{type: </text><text class="speech-bubble-content property-value" x="-70.17991638183594" y="23" alignment-baseline="central" font-size="14px" font-family="&quot;Helvetica Neue&quot;, Helvetica, Arial, sans-serif">xxxx}</text><text class="speech-bubble-content property-value" x="-70.17991638183594" y="37" alignment-baseline="central" font-size="14px" font-family="&quot;Helvetica Neue&quot;, Helvetica, Arial, sans-serif">Disease}</text></g><g class="speech-bubble node-speech-bubble" transform="translate(264.95532175267454,31.000000000000004) "><path class="speech-bubble-outline" transform="scale(1,1) " d="M 0 0 L 12 -4 L 12 -14 A 4 4 0 0 1 16 -18 L 122.30183410644531 -18 A 4 4 0 0 1 126.30183410644531 -14 L 126.30183410644531 14 A 4 4 0 0 1 122.30183410644531 18 L 16 18 A 4 4 0 0 1 12 14 L 12 4 Z" fill="rgb(255, 255, 255)" stroke="rgba(0, 0, 0, 0.5)" stroke-width="1px"/><text class="speech-bubble-content property-key" x="59.03593444824219" y="-7" alignment-baseline="central" text-anchor="end" font-size="14px" font-family="&quot;Helvetica Neue&quot;, Helvetica, Arial, sans-serif" xml:space="preserve">{curie: </text><text class="speech-bubble-content property-key" x="59.03593444824219" y="7" alignment-baseline="central" text-anchor="end" font-size="14px" font-family="&quot;Helvetica Neue&quot;, Helvetica, Arial, sans-serif" xml:space="preserve">{type: </text><text class="speech-bubble-content property-value" x="59.03593444824219" y="-7" alignment-baseline="central" font-size="14px" font-family="&quot;Helvetica Neue&quot;, Helvetica, Arial, sans-serif">xxxx}</text><text class="speech-bubble-content property-value" x="59.03593444824219" y="7" alignment-baseline="central" font-size="14px" font-family="&quot;Helvetica Neue&quot;, Helvetica, Arial, sans-serif">Chemical}</text></g><g class="speech-bubble relationship-speech-bubble" transform="translate(38.000000000000014,23.783626299344064) "><path class="speech-bubble-outline" transform="scale(-1,1) " d="M 0 0 L 12 -4 L 12 -35 A 4 4 0 0 1 16 -39 L 126.82383728027344 -39 A 4 4 0 0 1 130.82383728027344 -35 L 130.82383728027344 35 A 4 4 0 0 1 126.82383728027344 39 L 16 39 A 4 4 0 0 1 12 35 L 12 4 Z" fill="rgb(255, 255, 255)" stroke="rgba(0, 0, 0, 0.5)" stroke-width="1px"/><text class="speech-bubble-content property-key" x="-44.36396789550781" y="-28" alignment-baseline="central" text-anchor="end" font-size="14px" font-family="&quot;Helvetica Neue&quot;, Helvetica, Arial, sans-serif" xml:space="preserve">{max_tag: </text><text class="speech-bubble-content property-key" x="-44.36396789550781" y="-14" alignment-baseline="central" text-anchor="end" font-size="14px" font-family="&quot;Helvetica Neue&quot;, Helvetica, Arial, sans-serif" xml:space="preserve">{max_score: </text><text class="speech-bubble-content property-key" x="-44.36396789550781" y="0" alignment-baseline="central" text-anchor="end" font-size="14px" font-family="&quot;Helvetica Neue&quot;, Helvetica, Arial, sans-serif" xml:space="preserve">{max_ind: </text><text class="speech-bubble-content property-value" x="-44.36396789550781" y="-28" alignment-baseline="central" font-size="14px" font-family="&quot;Helvetica Neue&quot;, Helvetica, Arial, sans-serif">'a+'}</text><text class="speech-bubble-content property-value" x="-44.36396789550781" y="-14" alignment-baseline="central" font-size="14px" font-family="&quot;Helvetica Neue&quot;, Helvetica, Arial, sans-serif">X.X}</text><text class="speech-bubble-content property-value" x="-44.36396789550781" y="0" alignment-baseline="central" font-size="14px" font-family="&quot;Helvetica Neue&quot;, Helvetica, Arial, sans-serif">X}</text><text class="speech-bubble-content property-key" x="-44.36396789550781" y="14" alignment-baseline="central" text-anchor="end" font-size="14px" font-family="&quot;Helvetica Neue&quot;, Helvetica, Arial, sans-serif" xml:space="preserve">{distribution: </text><text class="speech-bubble-content property-key" x="-44.36396789550781" y="28" alignment-baseline="central" text-anchor="end" font-size="14px" font-family="&quot;Helvetica Neue&quot;, Helvetica, Arial, sans-serif" xml:space="preserve">{inds: </text><text class="speech-bubble-content property-value" x="-44.36396789550781" y="14" alignment-baseline="central" font-size="14px" font-family="&quot;Helvetica Neue&quot;, Helvetica, Arial, sans-serif">}</text><text class="speech-bubble-content property-value" x="-44.36396789550781" y="28" alignment-baseline="central" font-size="14px" font-family="&quot;Helvetica Neue&quot;, Helvetica, Arial, sans-serif">}</text></g></g><g class="layer overlay"><circle class="node overlay" r="26.174322412115654" stroke="none" fill="rgba(255, 255, 255, 0)" cx="38.000000000000014" cy="-142.86852249145514"/><circle class="node ring" r="31.174322412115654" fill="none" stroke="rgba(255, 255, 255, 0)" stroke-width="10px" cx="38.000000000000014" cy="-142.86852249145514"/><circle class="node overlay" r="35.73854732197198" stroke="none" fill="rgba(255, 255, 255, 0)" cx="38.000000000000014" cy="207.99999999999955"/><circle class="node ring" r="40.73854732197198" fill="none" stroke="rgba(255, 255, 255, 0)" stroke-width="10px" cx="38.000000000000014" cy="207.99999999999955"/><circle class="node overlay" r="42.45532175267482" stroke="none" fill="rgba(255, 255, 255, 0)" cx="222.99999999999974" cy="31.000000000000004"/><circle class="node ring" r="47.45532175267482" fill="none" stroke="rgba(255, 255, 255, 0)" stroke-width="10px" cx="222.99999999999974" cy="31.000000000000004"/><path class="relationship overlay" fill="rgba(255, 255, 255, 0)" stroke="rgba(255, 255, 255, 0)" stroke-width="10px" transform="translate(38.000000000000014,-142.86852249145514) rotate(90)" d="M 31.174322412115654 1 L 302.12997516948275 1 L 302.12997516948275 4 L 310.12997516948275 0 L 302.12997516948275 -4 L 302.12997516948275 -1 L 31.174322412115654 -1 Z"/><path class="relationship overlay" fill="rgba(255, 255, 255, 0)" stroke="rgba(255, 255, 255, 0)" stroke-width="10px" transform="translate(38.000000000000014,207.99999999999955) rotate(-43.734000999605236)" d="M 40.73854732197198 1 L 200.579832083668 1 L 200.579832083668 4 L 208.579832083668 0 L 200.579832083668 -4 L 200.579832083668 -1 L 40.73854732197198 -1 Z"/><path class="relationship overlay" fill="rgba(255, 255, 255, 0)" stroke="rgba(255, 255, 255, 0)" stroke-width="10px" transform="translate(222.99999999999974,31.000000000000004) rotate(-136.77664580179635)" d="M 47.45532175267482 1 L 214.70608863482107 1 L 214.70608863482107 4 L 222.70608863482107 0 L 214.70608863482107 -4 L 214.70608863482107 -1 L 47.45532175267482 -1 Z"/></g></svg>