<svg xmlns="http://www.w3.org/2000/svg" class="graphdiagram" viewBox="-729.5814249901289 -706.9810302997901 1433.596904379222 718.843942628135"><g class="layer relationships"><g class="related-pair"><g class="relationship" transform="translate(131.89720397949264,-217.3244799804685) rotate(180)"><path class="relationship" d="M 47.45532175267482 1 L 264.6420322068379 1 L 264.6420322068379 4 L 272.6420322068379 0 L 264.6420322068379 -4 L 264.6420322068379 -1 L 47.45532175267482 -1 Z" fill="rgba(0, 0, 0, 0.3)" stroke="rgb(51, 51, 51)" stroke-width="0px"/></g></g><g class="related-pair"><g class="relationship" transform="translate(131.89720397949264,-217.3244799804685) rotate(147.61431536315717)"><path class="relationship" d="M 47.45532175267482 1 L 248.36959126348728 1 L 248.36959126348728 4 L 256.3695912634873 0 L 248.36959126348728 -4 L 248.36959126348728 -1 L 47.45532175267482 -1 Z" fill="rgba(0, 0, 0, 0.3)" stroke="rgb(51, 51, 51)" stroke-width="0px"/><text class="type" text-anchor="middle" baseline-shift="30%" alignment-baseline="alphabetic" transform="rotate(180)" x="-147.91245650808105" y="0" font-size="14px" font-family="&quot;Helvetica Neue&quot;, Helvetica, Arial, sans-serif">STATEMENT</text></g></g><g class="related-pair"><g class="relationship" transform="translate(-110.92263992309583,-63.311410083770674) rotate(-114.61477516360215)"><path class="relationship" d="M 31.174322412115654 1 L 120.66878165501959 1 L 120.66878165501959 4 L 128.6687816550196 0 L 120.66878165501959 -4 L 120.66878165501959 -1 L 31.174322412115654 -1 Z" fill="rgba(0, 0, 0, 0.3)" stroke="rgb(51, 51, 51)" stroke-width="0px"/></g></g><g class="related-pair"><g class="relationship" transform="translate(-181.48337554931717,-217.3244799804685) rotate(-58.87954268269402)"><path class="relationship" d="M 40.73854732197198 1 L 226.13012161915714 1 L 226.13012161915714 4 L 234.13012161915714 0 L 226.13012161915714 -4 L 226.13012161915714 -1 L 40.73854732197198 -1 Z" fill="rgba(0, 0, 0, 0.3)" stroke="rgb(51, 51, 51)" stroke-width="0px"/></g></g><g class="related-pair"><g class="relationship" transform="translate(-110.92263992309583,-63.311410083770674) rotate(-79.21724439939679)"><path class="relationship" d="M 31.174322412115654 1 L 346.6219347498448 1 L 346.6219347498448 4 L 354.6219347498448 0 L 346.6219347498448 -4 L 346.6219347498448 -1 L 31.174322412115654 -1 Z" fill="rgba(0, 0, 0, 0.3)" stroke="rgb(51, 51, 51)" stroke-width="0px"/></g></g><g class="related-pair"><g class="relationship" transform="translate(131.89720397949264,-217.3244799804685) rotate(-124.71430074560608)"><path class="relationship" d="M 47.45532175267482 1 L 237.83616018967894 1 L 237.83616018967894 4 L 245.83616018967894 0 L 237.83616018967894 -4 L 237.83616018967894 -1 L 47.45532175267482 -1 Z" fill="rgba(0, 0, 0, 0.3)" stroke="rgb(51, 51, 51)" stroke-width="0px"/><text class="type" text-anchor="middle" baseline-shift="30%" alignment-baseline="alphabetic" x="-142.64574097117688" y="0" font-size="14px" font-family="&quot;Helvetica Neue&quot;, Helvetica, Arial, sans-serif" transform="rotate(180)">IN_SENTENCE</text></g></g><g class="related-pair"><g class="relationship" transform="translate(-35.55831909179834,-459.0320453643788) rotate(-90)"><path class="relationship" d="M 48.21128389187896 1 L 137.21274220692385 1 L 137.21274220692385 4 L 145.21274220692385 0 L 137.21274220692385 -4 L 137.21274220692385 -1 L 48.21128389187896 -1 Z" fill="rgba(0, 0, 0, 0.3)" stroke="rgb(51, 51, 51)" stroke-width="0px"/><text class="type" text-anchor="middle" baseline-shift="30%" alignment-baseline="alphabetic" x="92.7120130494014" y="0" font-size="14px" font-family="&quot;Helvetica Neue&quot;, Helvetica, Arial, sans-serif">HAS_PATH</text></g></g></g><g class="layer nodes"><circle class="node node-id-0" r="35.23854732197198" fill="rgb(247, 247, 249)" stroke="rgba(0, 0, 0, 0.3)" stroke-width="1px" cx="-181.48337554931717" cy="-217.3244799804685"/><g class="caption"><text class="caption node" text-anchor="middle" alignment-baseline="central" x="-181.48337554931717" y="-217.3244799804685" fill="rgb(51, 51, 51)" font-size="14px" font-family="&quot;Helvetica Neue&quot;, Helvetica, Arial, sans-serif">DISEASE</text></g><circle class="node node-id-1" r="41.95532175267482" fill="rgb(247, 247, 249)" stroke="rgba(0, 0, 0, 0.3)" stroke-width="1px" cx="131.89720397949264" cy="-217.3244799804685"/><circle class="node node-id-2" r="25.674322412115654" fill="rgb(247, 247, 249)" stroke="rgba(0, 0, 0, 0.3)" stroke-width="1px" cx="-110.92263992309583" cy="-63.311410083770674"/><circle class="node node-id-4" r="42.71128389187896" fill="rgb(247, 247, 249)" stroke="rgba(0, 0, 0, 0.3)" stroke-width="1px" cx="-35.55831909179834" cy="-459.0320453643788"/><circle class="node node-id-6" r="23.868121364243677" fill="rgb(247, 247, 249)" stroke="rgba(0, 0, 0, 0.3)" stroke-width="1px" cx="-35.55831909179834" cy="-633.6129089355463"/><g class="caption"><text class="caption node" text-anchor="middle" alignment-baseline="central" x="131.89720397949264" y="-217.3244799804685" fill="rgb(51, 51, 51)" font-size="14px" font-family="&quot;Helvetica Neue&quot;, Helvetica, Arial, sans-serif">CHEMICAL</text></g><g class="caption"><text class="caption node" text-anchor="middle" alignment-baseline="central" x="-110.92263992309583" y="-63.311410083770674" fill="rgb(51, 51, 51)" font-size="14px" font-family="&quot;Helvetica Neue&quot;, Helvetica, Arial, sans-serif">GENE</text></g><g class="caption"><text class="caption node" text-anchor="middle" alignment-baseline="central" x="-35.55831909179834" y="-459.0320453643788" fill="rgb(51, 51, 51)" font-size="14px" font-family="&quot;Helvetica Neue&quot;, Helvetica, Arial, sans-serif">SENTENCE</text></g><g class="caption"><text class="caption node" text-anchor="middle" alignment-baseline="central" x="-35.55831909179834" y="-633.6129089355463" fill="rgb(51, 51, 51)" font-size="14px" font-family="&quot;Helvetica Neue&quot;, Helvetica, Arial, sans-serif">PATH</text></g></g><g class="layer properties"><g class="speech-bubble node-speech-bubble" transform="translate(-216.72192287128917,-217.3244799804685) "><path class="speech-bubble-outline" transform="scale(-1,1) " d="M 0 0 L 12 -4 L 12 -14 A 4 4 0 0 1 16 -18 L 67.86993408203125 -18 A 4 4 0 0 1 71.86993408203125 -14 L 71.86993408203125 14 A 4 4 0 0 1 67.86993408203125 18 L 16 18 A 4 4 0 0 1 12 14 L 12 4 Z" fill="rgb(255, 255, 255)" stroke="rgba(0, 0, 0, 0.5)" stroke-width="1px"/><text class="speech-bubble-content property-key" x="-20.6619873046875" y="-7" alignment-baseline="central" text-anchor="end" font-size="14px" font-family="&quot;Helvetica Neue&quot;, Helvetica, Arial, sans-serif" xml:space="preserve">{curi: </text><text class="speech-bubble-content property-key" x="-20.6619873046875" y="7" alignment-baseline="central" text-anchor="end" font-size="14px" font-family="&quot;Helvetica Neue&quot;, Helvetica, Arial, sans-serif" xml:space="preserve">{name: </text><text class="speech-bubble-content property-value" x="-20.6619873046875" y="-7" alignment-baseline="central" font-size="14px" font-family="&quot;Helvetica Neue&quot;, Helvetica, Arial, sans-serif">}</text><text class="speech-bubble-content property-value" x="-20.6619873046875" y="7" alignment-baseline="central" font-size="14px" font-family="&quot;Helvetica Neue&quot;, Helvetica, Arial, sans-serif">}</text></g><g class="speech-bubble node-speech-bubble" transform="translate(173.85252573216746,-217.3244799804685) "><path class="speech-bubble-outline" transform="scale(1,1) " d="M 0 0 L 12 -4 L 12 -14 A 4 4 0 0 1 16 -18 L 67.86993408203125 -18 A 4 4 0 0 1 71.86993408203125 -14 L 71.86993408203125 14 A 4 4 0 0 1 67.86993408203125 18 L 16 18 A 4 4 0 0 1 12 14 L 12 4 Z" fill="rgb(255, 255, 255)" stroke="rgba(0, 0, 0, 0.5)" stroke-width="1px"/><text class="speech-bubble-content property-key" x="63.20794677734375" y="-7" alignment-baseline="central" text-anchor="end" font-size="14px" font-family="&quot;Helvetica Neue&quot;, Helvetica, Arial, sans-serif" xml:space="preserve">{curi: </text><text class="speech-bubble-content property-key" x="63.20794677734375" y="7" alignment-baseline="central" text-anchor="end" font-size="14px" font-family="&quot;Helvetica Neue&quot;, Helvetica, Arial, sans-serif" xml:space="preserve">{name: </text><text class="speech-bubble-content property-value" x="63.20794677734375" y="-7" alignment-baseline="central" font-size="14px" font-family="&quot;Helvetica Neue&quot;, Helvetica, Arial, sans-serif">}</text><text class="speech-bubble-content property-value" x="63.20794677734375" y="7" alignment-baseline="central" font-size="14px" font-family="&quot;Helvetica Neue&quot;, Helvetica, Arial, sans-serif">}</text></g><g class="speech-bubble node-speech-bubble" transform="translate(-110.92263992309583,-37.637087671655024) "><path class="speech-bubble-outline" transform="scale(1,1) " d="M 0 0 L -4 12 L -25.934967041015625 12 A 4 4 0 0 0 -29.934967041015625 16 L -29.934967041015625 44 A 4 4 0 0 0 -25.934967041015625 48 L 25.934967041015625 48 A 4 4 0 0 0 29.934967041015625 44 L 29.934967041015625 16 A 4 4 0 0 0 25.934967041015625 12 L 4 12 Z" fill="rgb(255, 255, 255)" stroke="rgba(0, 0, 0, 0.5)" stroke-width="1px"/><text class="speech-bubble-content property-key" x="21.272979736328125" y="23" alignment-baseline="central" text-anchor="end" font-size="14px" font-family="&quot;Helvetica Neue&quot;, Helvetica, Arial, sans-serif" xml:space="preserve">{curi: </text><text class="speech-bubble-content property-key" x="21.272979736328125" y="37" alignment-baseline="central" text-anchor="end" font-size="14px" font-family="&quot;Helvetica Neue&quot;, Helvetica, Arial, sans-serif" xml:space="preserve">{name: </text><text class="speech-bubble-content property-value" x="21.272979736328125" y="23" alignment-baseline="central" font-size="14px" font-family="&quot;Helvetica Neue&quot;, Helvetica, Arial, sans-serif">}</text><text class="speech-bubble-content property-value" x="21.272979736328125" y="37" alignment-baseline="central" font-size="14px" font-family="&quot;Helvetica Neue&quot;, Helvetica, Arial, sans-serif">}</text></g><g class="speech-bubble node-speech-bubble" transform="translate(-78.2696029836773,-459.0320453643788) "><path class="speech-bubble-outline" transform="scale(-1,1) " d="M 0 0 L 12 -4 L 12 -21 A 4 4 0 0 1 16 -25 L 82.62590026855469 -25 A 4 4 0 0 1 86.62590026855469 -21 L 86.62590026855469 21 A 4 4 0 0 1 82.62590026855469 25 L 16 25 A 4 4 0 0 1 12 21 L 12 4 Z" fill="rgb(255, 255, 255)" stroke="rgba(0, 0, 0, 0.5)" stroke-width="1px"/><text class="speech-bubble-content property-key" x="-20.6619873046875" y="-14" alignment-baseline="central" text-anchor="end" font-size="14px" font-family="&quot;Helvetica Neue&quot;, Helvetica, Arial, sans-serif" xml:space="preserve">{text: </text><text class="speech-bubble-content property-key" x="-20.6619873046875" y="0" alignment-baseline="central" text-anchor="end" font-size="14px" font-family="&quot;Helvetica Neue&quot;, Helvetica, Arial, sans-serif" xml:space="preserve">{pmid: </text><text class="speech-bubble-content property-value" x="-20.6619873046875" y="-14" alignment-baseline="central" font-size="14px" font-family="&quot;Helvetica Neue&quot;, Helvetica, Arial, sans-serif">}</text><text class="speech-bubble-content property-value" x="-20.6619873046875" y="0" alignment-baseline="central" font-size="14px" font-family="&quot;Helvetica Neue&quot;, Helvetica, Arial, sans-serif">}</text><text class="speech-bubble-content property-key" x="-20.6619873046875" y="14" alignment-baseline="central" text-anchor="end" font-size="14px" font-family="&quot;Helvetica Neue&quot;, Helvetica, Arial, sans-serif" xml:space="preserve">{location: </text><text class="speech-bubble-content property-value" x="-20.6619873046875" y="14" alignment-baseline="central" font-size="14px" font-family="&quot;Helvetica Neue&quot;, Helvetica, Arial, sans-serif">}</text></g><g class="speech-bubble node-speech-bubble" transform="translate(-35.55831909179834,-657.4810302997901) "><path class="speech-bubble-outline" transform="scale(1,-1) " d="M 0 0 L -4 12 L -43.56092834472656 12 A 4 4 0 0 0 -47.56092834472656 16 L -47.56092834472656 44 A 4 4 0 0 0 -43.56092834472656 48 L 43.56092834472656 48 A 4 4 0 0 0 47.56092834472656 44 L 47.56092834472656 16 A 4 4 0 0 0 43.56092834472656 12 L 4 12 Z" fill="rgb(255, 255, 255)" stroke="rgba(0, 0, 0, 0.5)" stroke-width="1px"/><text class="speech-bubble-content property-key" x="38.89894104003906" y="-37" alignment-baseline="central" text-anchor="end" font-size="14px" font-family="&quot;Helvetica Neue&quot;, Helvetica, Arial, sans-serif" xml:space="preserve">{path: </text><text class="speech-bubble-content property-key" x="38.89894104003906" y="-23" alignment-baseline="central" text-anchor="end" font-size="14px" font-family="&quot;Helvetica Neue&quot;, Helvetica, Arial, sans-serif" xml:space="preserve">{distribution: </text><text class="speech-bubble-content property-value" x="38.89894104003906" y="-37" alignment-baseline="central" font-size="14px" font-family="&quot;Helvetica Neue&quot;, Helvetica, Arial, sans-serif">}</text><text class="speech-bubble-content property-value" x="38.89894104003906" y="-23" alignment-baseline="central" font-size="14px" font-family="&quot;Helvetica Neue&quot;, Helvetica, Arial, sans-serif">}</text></g><g class="speech-bubble relationship-speech-bubble" transform="translate(6.990788324804413,-138.10022789467587) "><path class="speech-bubble-outline" transform="scale(1,1) " d="M 0 0 L 16 12 L 91.71186828613281 12 A 4 4 0 0 1 95.71186828613281 16 L 95.71186828613281 58 A 4 4 0 0 1 91.71186828613281 62 L 16 62 A 4 4 0 0 1 12 58 L 12 16 Z" fill="rgb(255, 255, 255)" stroke="rgba(0, 0, 0, 0.5)" stroke-width="1px"/><text class="speech-bubble-content property-key" x="87.04988098144531" y="23" alignment-baseline="central" text-anchor="end" font-size="14px" font-family="&quot;Helvetica Neue&quot;, Helvetica, Arial, sans-serif" xml:space="preserve">{predicate: </text><text class="speech-bubble-content property-key" x="87.04988098144531" y="37" alignment-baseline="central" text-anchor="end" font-size="14px" font-family="&quot;Helvetica Neue&quot;, Helvetica, Arial, sans-serif" xml:space="preserve">{score: </text><text class="speech-bubble-content property-key" x="87.04988098144531" y="51" alignment-baseline="central" text-anchor="end" font-size="14px" font-family="&quot;Helvetica Neue&quot;, Helvetica, Arial, sans-serif" xml:space="preserve">{verified: </text><text class="speech-bubble-content property-value" x="87.04988098144531" y="23" alignment-baseline="central" font-size="14px" font-family="&quot;Helvetica Neue&quot;, Helvetica, Arial, sans-serif">}</text><text class="speech-bubble-content property-value" x="87.04988098144531" y="37" alignment-baseline="central" font-size="14px" font-family="&quot;Helvetica Neue&quot;, Helvetica, Arial, sans-serif">}</text><text class="speech-bubble-content property-value" x="87.04988098144531" y="51" alignment-baseline="central" font-size="14px" font-family="&quot;Helvetica Neue&quot;, Helvetica, Arial, sans-serif">}</text></g></g><g class="layer overlay"><circle class="node overlay" r="35.73854732197198" stroke="none" fill="rgba(255, 255, 255, 0)" cx="-181.48337554931717" cy="-217.3244799804685"/><circle class="node ring" r="40.73854732197198" fill="none" stroke="rgba(255, 255, 255, 0)" stroke-width="10px" cx="-181.48337554931717" cy="-217.3244799804685"/><circle class="node overlay" r="42.45532175267482" stroke="none" fill="rgba(255, 255, 255, 0)" cx="131.89720397949264" cy="-217.3244799804685"/><circle class="node ring" r="47.45532175267482" fill="none" stroke="rgba(255, 255, 255, 0)" stroke-width="10px" cx="131.89720397949264" cy="-217.3244799804685"/><path class="relationship overlay" fill="rgba(255, 255, 255, 0)" stroke="rgba(255, 255, 255, 0)" stroke-width="10px" transform="translate(131.89720397949264,-217.3244799804685) rotate(180)" d="M 47.45532175267482 1 L 264.6420322068379 1 L 264.6420322068379 4 L 272.6420322068379 0 L 264.6420322068379 -4 L 264.6420322068379 -1 L 47.45532175267482 -1 Z"/><circle class="node overlay" r="26.174322412115654" stroke="none" fill="rgba(255, 255, 255, 0)" cx="-110.92263992309583" cy="-63.311410083770674"/><circle class="node ring" r="31.174322412115654" fill="none" stroke="rgba(255, 255, 255, 0)" stroke-width="10px" cx="-110.92263992309583" cy="-63.311410083770674"/><path class="relationship overlay" fill="rgba(255, 255, 255, 0)" stroke="rgba(255, 255, 255, 0)" stroke-width="10px" transform="translate(131.89720397949264,-217.3244799804685) rotate(147.61431536315717)" d="M 47.45532175267482 1 L 248.36959126348728 1 L 248.36959126348728 4 L 256.3695912634873 0 L 248.36959126348728 -4 L 248.36959126348728 -1 L 47.45532175267482 -1 Z"/><path class="relationship overlay" fill="rgba(255, 255, 255, 0)" stroke="rgba(255, 255, 255, 0)" stroke-width="10px" transform="translate(-110.92263992309583,-63.311410083770674) rotate(-114.61477516360215)" d="M 31.174322412115654 1 L 120.66878165501959 1 L 120.66878165501959 4 L 128.6687816550196 0 L 120.66878165501959 -4 L 120.66878165501959 -1 L 31.174322412115654 -1 Z"/><circle class="node overlay" r="43.21128389187896" stroke="none" fill="rgba(255, 255, 255, 0)" cx="-35.55831909179834" cy="-459.0320453643788"/><circle class="node ring" r="48.21128389187896" fill="none" stroke="rgba(255, 255, 255, 0)" stroke-width="10px" cx="-35.55831909179834" cy="-459.0320453643788"/><path class="relationship overlay" fill="rgba(255, 255, 255, 0)" stroke="rgba(255, 255, 255, 0)" stroke-width="10px" transform="translate(-181.48337554931717,-217.3244799804685) rotate(-58.87954268269402)" d="M 40.73854732197198 1 L 226.13012161915714 1 L 226.13012161915714 4 L 234.13012161915714 0 L 226.13012161915714 -4 L 226.13012161915714 -1 L 40.73854732197198 -1 Z"/><path class="relationship overlay" fill="rgba(255, 255, 255, 0)" stroke="rgba(255, 255, 255, 0)" stroke-width="10px" transform="translate(-110.92263992309583,-63.311410083770674) rotate(-79.21724439939679)" d="M 31.174322412115654 1 L 346.6219347498448 1 L 346.6219347498448 4 L 354.6219347498448 0 L 346.6219347498448 -4 L 346.6219347498448 -1 L 31.174322412115654 -1 Z"/><path class="relationship overlay" fill="rgba(255, 255, 255, 0)" stroke="rgba(255, 255, 255, 0)" stroke-width="10px" transform="translate(131.89720397949264,-217.3244799804685) rotate(-124.71430074560608)" d="M 47.45532175267482 1 L 237.83616018967894 1 L 237.83616018967894 4 L 245.83616018967894 0 L 237.83616018967894 -4 L 237.83616018967894 -1 L 47.45532175267482 -1 Z"/><circle class="node overlay" r="24.368121364243677" stroke="none" fill="rgba(255, 255, 255, 0)" cx="-35.55831909179834" cy="-633.6129089355463"/><circle class="node ring" r="29.368121364243677" fill="none" stroke="rgba(255, 255, 255, 0)" stroke-width="10px" cx="-35.55831909179834" cy="-633.6129089355463"/><path class="relationship overlay" fill="rgba(255, 255, 255, 0)" stroke="rgba(255, 255, 255, 0)" stroke-width="10px" transform="translate(-35.55831909179834,-459.0320453643788) rotate(-90)" d="M 48.21128389187896 1 L 137.21274220692385 1 L 137.21274220692385 4 L 145.21274220692385 0 L 137.21274220692385 -4 L 137.21274220692385 -1 L 48.21128389187896 -1 Z"/></g></svg>